#TITLE                     ビッグブリッヂの死闘#COMPOSER             植松伸夫#PROGRAMER　　　K->#BANK-CHANGE 3ABCDE t180;########################;　       ;########################@0={2 2 3}@1={3 3 2 }@2={0 3}@v0={ 1 2 2 2 3 3 3 3 3 3 4 4 4 4 4 4 4 5 7 6 5 4 3 2}@v1={8 7 6 6 4 3 2}@v2={9 1} ; c.h@v3={9 6} ; o.h@v4={15 10 8 4 0} ; sn@v5={12 11 11 11 10 10 10 9 8 7 5 4 3 2 2 1 0  } ; crash?@v6={2 2 3 3 4 4 5 6 6 7 6 6 5 4 3 3 2 2 5 5 6 6 6 6 6 6 6 7}@v7={7 7 6 6 5 4}@v8={2 3 4 5 6 7 8}@v9={10 10 10 9 8 6 5 4}@EP0={-100 50 50 0 } ; c@EP1={4 0} ; o@EP2={-6 -6 0} ; sn@EP3={-50 50 0}@EN1={ 0}@MP0={52 3 3 0}@MP1={20 3 2 0}@DPCM0={"bd.dmc" 15} ; c@DPCM2={"ht.dmc" 15} ; d@DPCM4={"mt.dmc" 15} ; e@DPCM5={"ft.dmc" 15} ; f; A intro --------------A   q8 o3 @@0 v8 l16            [cfg>cfg>cfgfcfg>c<gfc<gfc<gfc<g>]4A  q8 o3 @@0 v8 l16           [cfg>cfg>cfgfcfg>c<gfc<gfc<gfc<g>]4A    q8 o4 @3 v9 l4                r32r  d+d r8 {<<b>cdefgab>}8   q5 @vr7dc+ r  q7 c+c8..A    q8 o3 @@0 v8 l16           [cfg>cfg>cfgfcfg>c<gfc<gfc<gfc<g>]2A    q8 o4 @3 v9 l4                r32r  d+d r8  {<<b>cdefgab>}8   q5 @vr7dc+ r q7 c+c r c<b8..A    q7 o4 @3 v10 l8             ffrfg+frfg+fa+b {q7a+ba+}8 g+fd+ ffrfg+gfr  r1         ; --------------------->d8c+c<ba+ag+gf+fed+dc+cA LA    q5 o4 @1  v10 l8              q8e32f16.q6gq4g+f q4a+g+gf >c<f>c+<f>c<q7g+4g+ q4a+e>c<ea+q7g4g q7g+gfg g+a+g+g   A    q5 o4 @1  v10 l8              q7fgg+f q4a+g+gf >c<f>c+<f>c<q7g+4g+ q5a+e>c<ea+q7g4g q7 @@1g+a+>cc+d+c+cc+ A    q8 o4 @2  v10 l8                       @v8    > MP0d+1^4 cdd+4g4f1.^4  @2v9<{defgab>cdefga}4MPOF @v9  q6 < EP3a+EPOFaa+fgfdd+ fefdd+c<a+>d  q8  @v8 @@0 < a4.>c4.c4 f4.g4.a4 A    q8 o5 @1 v9 l8                     @3 @v8MP1d+4dc4dd+2. v9 d+4f4 g4fd+4fg1^4MPOF    a4f+d+<a>cdd+4d+4cf4d+4A    q8 o5 @3  v10  l16                      MP0q7 d1MPOF  o3 v10 l8 q3  @2 >gq3<gb>dgfd<bA    q6 o5 q8 v10 l16          @1            g+4g8 r8 f+4  g8 r8 g+d+cd+ gd<b>d f+c+<a+>c+ g8r8   >c<gd+g a+fdf  g+d+cd+ gd<b>d fc<g+>c d+c<g>c d+c<a>c d<bgbA    q7 o4 @3 v10 l8             ccrcd+crcd+cff+ {q7ff+f}8 d+c<a+ >g+4.g4.f+4 r4 d+4d4c+4 [o3 l8 q8 @2 v10 r32 gv-2agv-2agv-2agv-2a v9 f+v-2g+f+v-2g+f+v-2g+f+v+2g+16.]2A    q7 o4 @3 v10 l8             ffrfg+frfg+fa+b {q7a+ba+}8 g+fd+; B intro --------------B   q8 o3 @0 @v0 l1.                        c <a+ g+ a+1^4 {v10>c+c<ba+ag+af+}4B  q5 o3 @1 v7 @vr7   l16             [f8 ff >f8 <f8 ff >f8 <f8>f8 <g8g+8a+8>c8<  f8 ff >f8 <f8 ff >f8 <f8>f8 <d+8c8f8g8<]2B    q7 o3 @@0 v8  l4                       r r32 a+a r  ag+ r g+g8..     B    q5 o3 @1 v7 @vr7   l16            f8 ff >f8 <f8 ff >f8 <f8>f8 <g8g+8a+8>c8<  f8 ff >f8 <f8 ff >f8 <f8>f8 <d+8c8f8g8<B    q7 o3 @@0 v8   l4                      r r32 a+a r  ag+ r g+g r gf+8..    B    q7 o3 @2 v10  l8              ccrcd+crcd+cff+{q8ff+f}8q7d+c<a+> ccrcd+dcr   r1 ;----------------------B LB   q8  o3 @v6 @2 l8                MP1 f4.>f4c<fc >c4.f4.<f32>f8.. <a+1 g+4c+4a+4d+4   o3 f4.>f4c<fc >c4.f4.<f32>f8.. a+1MPOF@2 q8 v8 l16 @@1 g+c+fg+fc+fg+  @@0a+d+ga+gd+ga+   B   q8  o4 @2 v7 l8                   @v8MP0c1@v6<f4.@v8g2^8 @v8 b4.g4.@v6d1 v8@2{fg+g+a+>cdd+g+a+>c}4 MPOF  @0 v9 q8< g+32a+4^16.f4.d+4  v8 d4.d+4.d4 c4.f4.g4 EP3a4.EPOF>c4.d4B   q8 o4 @2 v8 l8                    MP0c4<a+g+4a+>c2. c4d4 d+4dc4dd+1^4   MPOF l4. @v8MP1<d+f+a>cd+4f+4MPOF B   q8 o5 @2 v8 l16                  f8@@1ed+dc+c<ba+ag+gf+fed+  q7o3 l8   @2 D2 q3 r32>gq3<gb>dgfd<g16. D255B    q6 o5 q8 v10 l16      @@0         c4 <b8 r8 a+4  b8 r8   >c<g+d+g+  bgdga+f+c+f+b8 r8 >d+c<g>c d<a+fa+ >c<g+d+g+ bgdg g+fcf gd+<a+>d+ afcf gd<b>dB    q7 o3 @2 v10  l8             ggrga+grga+g>cc+{q8cc+c}8q7<a+gf  a4.g+4.g4 r4  a+4a4g+4  [o4 l8 q6 @2 v10 cv-2dcv-2dcv-2dcv-2d v9 <bv-2>c+<bv-2>c+<bv-2>c+<bv+2>c+]2B    q7 o3 @2 v10  l8             ccrcd+crcd+cff+{q8ff+f}8q7d+c<a+; C intro --------------C   q8 o3 v15 l1.                    f d+ c+ d+C  q7 o4 v15 l8                    [ff>f<ff>f<ff gg+a+>c <ff>f<ff>f<ff d+cfg]2C    q7 o3 v15 l4                    f8f8 q8 >c<b r ba+ r a+aC    q7 o4 v15 l8                    ff>f<ff>f<ff gg+a+>c <ff>f<ff>f<ff d+cfgC    q7 o3 v15 l4                    f8f8 q8 >c<b r ba+ r a+a r ag+C    q7 o4  v15 l8                   ffrfg+frfg+fa+b a+g+fd+ ffrfg+gfr  r1 ;----------------------C LC   q7  o3  v15 l8                  [f4.>f4c<a+g+ f4.>f4c<a+>c+ c4.<g4.a+4 >c+4.<g+>d+<a+4g]2C   q7  o3  v15 l8                 >cccccccccccccccc <g4.>d4.<b4 g4.a4.b4  a+a+a+a+a+a+a+a+a+a+a+a+a+a+a+a+ f4.>c4.<a4 f4.g4.a4C   q7  o3  v15 l8                  g+g+g+g+g+g+g+g+g+g+g+g+g+g+a+a+ >c4.g4.d+4 c4.<g4.>c4 <a4.  >c4.d+4 f+4.d+4.c4 <gg>g<g g>g<gg l4 q8> gfd+dC   q7  o3  v15 l4                  rgrgrgrg l8 c4dd+4.g4 f4ga4.b4 >ccrcd+crcd+cff+fd+c<a+> f4.e4.d+4 l4 <c>c<ba+ l1 ag+ag+C    q7 o4  v15 l8                   ffrfg+frfg+fa+b a+g+fd+ ; D intro ----EP2 o4 @v4 sn----------D q7 o0 @v5 l1. EP1                aaaaD q7 o8 @v5 l4  EP1               rararEP2 o4 @v4a rEP1 o8 @v5ararEP2 o4 @v4a EP1 o8 @v5rararEP2 o4 @v4a EP1 o8 @v5rara4. EP2 o4 @v4 l16 aaaaaa D q7 o4 @v4 l4  EP2               raaraaraaD q7 o8 @v5 l4  EP1              o8 @v5rararEP2 o4 @v4 a EP1 @v5 o8 rara4. EP2 o4 @v4 l16 aaaaaa D q7 o4 @v4 l4  EP2              raaraaraaraaD q7 o8 @v5 l8  EP1              a1 EP2 o4 @v4 arEP1 @v5 o8aEP2 @v4 o4rararararara l16 EP1 o8 @v2 q1aa@v3 q7a8@v2q1aa@v3q7a8@v2q1aa@v3q7a8@v2q1aa@v3q7a8@v2q1aa;-----------------------------------D LD  q1 o8 @v3 l16 EP1             [@v3q8ar@v2q1aa EP2 @v4 q7 o4 a8 EP1 q1 o8 @v2 aa  @v3q8ar@v2q1aa EP2 @v4 o4 q8a8 EP1 q1 o8 @v2 aa]23D q1 o4 @v4 l8 EP2                @v4 q7 EP2 a1 EPOF  q7 o0 @v5 l4 EP1 rararara [l8 q1aaEP2 @v4 q7 o4 a8 EP1 o8 q1 @v5a]4D q4 o4 @v4 l8 EP2                aar2. l4 aaaa l4.aaa4 l4 raaa q7 o0 @v5 l1 EP1 aaaaD q7 o8 @v5 l8  EP1              a1 EP2 o4 @v4 arEP1 @v5 o8aEP2 @v4 o4rarar; E intro --------------E o0              l1.                     ccccE o0              l16                    [frff drff frff erff frff frcc]4E o0              l8                      cc r4.{def}8 cc rcrc ccrcrcE o0              l16                    [frff drff frff erff frff frfc]2E o0              l8                       cc r4.{def}8 cc rcrc ccrcrc ccrcrcE o0              l8                       ccrcrcrc l16 r8 dd r8 ee r8 ff r8 c8 r8 ee r8 dd r8 ff c4 r1 ;---------------------E LE o0              l8                      [crrcrrrr]22 crrcrrrc16c16 c1 l4 rcrcrcrc l8 crrcrrrrcrrcrrrr ccrcrcrccd16d16ce16e16ce16e16 cd16d16dcd16d16dc4 ccrcrc16c16rc [l4 cccc]4E o0              l8                       ccrcrcrc l16 r8 dd r8 ee r8 ff r8 c8 r4